<svg id="visual" viewBox="0 0 900 600" width="900" height="600" xmlns="http://www.w3.org/2000/svg" xmlns:xlink="http://www.w3.org/1999/xlink" version="1.1"><rect x="0" y="0" width="900" height="600" fill="#ffffff"></rect><defs><linearGradient id="grad1_0" x1="33.3%" y1="0%" x2="100%" y2="100%"><stop offset="20%" stop-color="#7abbf1" stop-opacity="1"></stop><stop offset="80%" stop-color="#7abbf1" stop-opacity="1"></stop></linearGradient></defs><defs><linearGradient id="grad1_1" x1="33.3%" y1="0%" x2="100%" y2="100%"><stop offset="20%" stop-color="#7abbf1" stop-opacity="1"></stop><stop offset="80%" stop-color="#a0ccf5" stop-opacity="1"></stop></linearGradient></defs><defs><linearGradient id="grad1_2" x1="33.3%" y1="0%" x2="100%" y2="100%"><stop offset="20%" stop-color="#c1dcf8" stop-opacity="1"></stop><stop offset="80%" stop-color="#a0ccf5" stop-opacity="1"></stop></linearGradient></defs><defs><linearGradient id="grad1_3" x1="33.3%" y1="0%" x2="100%" y2="100%"><stop offset="20%" stop-color="#c1dcf8" stop-opacity="1"></stop><stop offset="80%" stop-color="#e1eefc" stop-opacity="1"></stop></linearGradient></defs><defs><linearGradient id="grad1_4" x1="33.3%" y1="0%" x2="100%" y2="100%"><stop offset="20%" stop-color="#ffffff" stop-opacity="1"></stop><stop offset="80%" stop-color="#e1eefc" stop-opacity="1"></stop></linearGradient></defs><defs><linearGradient id="grad2_0" x1="0%" y1="0%" x2="66.7%" y2="100%"><stop offset="20%" stop-color="#7abbf1" stop-opacity="1"></stop><stop offset="80%" stop-color="#7abbf1" stop-opacity="1"></stop></linearGradient></defs><defs><linearGradient id="grad2_1" x1="0%" y1="0%" x2="66.7%" y2="100%"><stop offset="20%" stop-color="#a0ccf5" stop-opacity="1"></stop><stop offset="80%" stop-color="#7abbf1" stop-opacity="1"></stop></linearGradient></defs><defs><linearGradient id="grad2_2" x1="0%" y1="0%" x2="66.7%" y2="100%"><stop offset="20%" stop-color="#a0ccf5" stop-opacity="1"></stop><stop offset="80%" stop-color="#c1dcf8" stop-opacity="1"></stop></linearGradient></defs><defs><linearGradient id="grad2_3" x1="0%" y1="0%" x2="66.7%" y2="100%"><stop offset="20%" stop-color="#e1eefc" stop-opacity="1"></stop><stop offset="80%" stop-color="#c1dcf8" stop-opacity="1"></stop></linearGradient></defs><defs><linearGradient id="grad2_4" x1="0%" y1="0%" x2="66.7%" y2="100%"><stop offset="20%" stop-color="#e1eefc" stop-opacity="1"></stop><stop offset="80%" stop-color="#ffffff" stop-opacity="1"></stop></linearGradient></defs><g transform="translate(900, 0)"><path d="M0 486.7C-36.6 457.8 -73.1 428.8 -110.8 413.4C-148.4 398 -187.1 396.2 -218.5 378.5C-249.9 360.7 -273.8 327 -298.4 298.4C-323 269.8 -348.1 246.2 -380.2 219.5C-412.3 192.8 -451.2 163.1 -470.2 126C-489.1 88.9 -487.9 44.4 -486.7 0L0 0Z" fill="#f0f6fd"></path><path d="M0 389.4C-29.3 366.2 -58.5 343 -88.6 330.7C-118.7 318.4 -149.7 317 -174.8 302.8C-199.9 288.6 -219.1 261.6 -238.7 238.7C-258.4 215.8 -278.5 196.9 -304.1 175.6C-329.8 154.3 -361 130.5 -376.1 100.8C-391.3 71.1 -390.3 35.6 -389.4 0L0 0Z" fill="#d1e5fa"></path><path d="M0 292C-21.9 274.7 -43.9 257.3 -66.5 248C-89.1 238.8 -112.3 237.7 -131.1 227.1C-149.9 216.4 -164.3 196.2 -179 179C-193.8 161.9 -208.9 147.7 -228.1 131.7C-247.4 115.7 -270.7 97.8 -282.1 75.6C-293.4 53.3 -292.7 26.7 -292 0L0 0Z" fill="#b1d4f7"></path><path d="M0 194.7C-14.6 183.1 -29.3 171.5 -44.3 165.4C-59.4 159.2 -74.9 158.5 -87.4 151.4C-99.9 144.3 -109.5 130.8 -119.4 119.4C-129.2 107.9 -139.2 98.5 -152.1 87.8C-164.9 77.1 -180.5 65.2 -188.1 50.4C-195.6 35.6 -195.2 17.8 -194.7 0L0 0Z" fill="#8ec3f3"></path><path d="M0 97.3C-7.3 91.6 -14.6 85.8 -22.2 82.7C-29.7 79.6 -37.4 79.2 -43.7 75.7C-50 72.1 -54.8 65.4 -59.7 59.7C-64.6 54 -69.6 49.2 -76 43.9C-82.5 38.6 -90.2 32.6 -94 25.2C-97.8 17.8 -97.6 8.9 -97.3 0L0 0Z" fill="#7abbf1"></path></g><g transform="translate(0, 600)"><path d="M0 -486.7C34.6 -455.7 69.3 -424.7 112.3 -419.2C155.4 -413.7 206.9 -433.7 243.4 -421.5C279.8 -409.4 301.2 -365.1 331.6 -331.6C362 -298.1 401.4 -275.4 415.7 -240C430 -204.6 419.3 -156.5 426.9 -114.4C434.6 -72.3 460.7 -36.1 486.7 0L0 0Z" fill="#f0f6fd"></path><path d="M0 -389.4C27.7 -364.6 55.4 -339.8 89.9 -335.4C124.3 -331 165.5 -346.9 194.7 -337.2C223.9 -327.5 241 -292.1 265.3 -265.3C289.6 -238.5 321.1 -220.3 332.6 -192C344 -163.7 335.4 -125.2 341.6 -91.5C347.7 -57.8 368.5 -28.9 389.4 0L0 0Z" fill="#d1e5fa"></path><path d="M0 -292C20.8 -273.4 41.6 -254.8 67.4 -251.5C93.2 -248.2 124.1 -260.2 146 -252.9C167.9 -245.6 180.7 -219.1 199 -199C217.2 -178.9 240.8 -165.2 249.4 -144C258 -122.8 251.6 -93.9 256.2 -68.6C260.8 -43.4 276.4 -21.7 292 0L0 0Z" fill="#b1d4f7"></path><path d="M0 -194.7C13.9 -182.3 27.7 -169.9 44.9 -167.7C62.2 -165.5 82.8 -173.5 97.3 -168.6C111.9 -163.8 120.5 -146.1 132.7 -132.7C144.8 -119.3 160.6 -110.2 166.3 -96C172 -81.8 167.7 -62.6 170.8 -45.8C173.8 -28.9 184.3 -14.5 194.7 0L0 0Z" fill="#8ec3f3"></path><path d="M0 -97.3C6.9 -91.1 13.9 -84.9 22.5 -83.8C31.1 -82.7 41.4 -86.7 48.7 -84.3C56 -81.9 60.2 -73 66.3 -66.3C72.4 -59.6 80.3 -55.1 83.1 -48C86 -40.9 83.9 -31.3 85.4 -22.9C86.9 -14.5 92.1 -7.2 97.3 0L0 0Z" fill="#7abbf1"></path></g></svg>