<svg id="visual" viewBox="0 0 900 600" width="900" height="600" xmlns="http://www.w3.org/2000/svg" xmlns:xlink="http://www.w3.org/1999/xlink" version="1.1"><rect x="0" y="0" width="900" height="600" fill="#ffffff"></rect><defs><linearGradient id="grad1_0" x1="33.3%" y1="0%" x2="100%" y2="100%"><stop offset="20%" stop-color="#ffffff" stop-opacity="1"></stop><stop offset="80%" stop-color="#ffffff" stop-opacity="1"></stop></linearGradient></defs><defs><linearGradient id="grad2_0" x1="0%" y1="0%" x2="66.7%" y2="100%"><stop offset="20%" stop-color="#ffffff" stop-opacity="1"></stop><stop offset="80%" stop-color="#ffffff" stop-opacity="1"></stop></linearGradient></defs><g transform="translate(900, 0)"><path d="M0 297.5C-25.5 274.3 -50.9 251.2 -78.5 241.6C-106.1 231.9 -135.7 235.8 -165.8 228.1C-195.8 220.5 -226.2 201.2 -240.6 174.8C-255.1 148.5 -253.8 115 -260.6 84.7C-267.4 54.3 -282.4 27.2 -297.5 0L0 0Z" fill="#7abbf1"></path></g><g transform="translate(0, 600)"><path d="M0 -297.5C28.9 -288.7 57.8 -280 88.1 -271.1C118.4 -262.1 150.1 -252.8 168.1 -231.4C186.1 -210 190.4 -176.4 210.3 -152.8C230.3 -129.3 265.8 -115.7 282.9 -91.9C300 -68.1 298.7 -34.1 297.5 0L0 0Z" fill="#7abbf1"></path></g></svg>