<svg id="visual" viewBox="0 0 3000 400" width="3000" height="400" xmlns="http://www.w3.org/2000/svg" xmlns:xlink="http://www.w3.org/1999/xlink" version="1.1"><rect width="3000" height="400" fill="#4e78f6"></rect><g><g transform="translate(2451 322)"><path d="M0 -184.4L159.7 -92.2L159.7 92.2L0 184.4L-159.7 92.2L-159.7 -92.2Z" stroke="#70d2ff" fill="none" stroke-width="10"></path></g><g transform="translate(2032 139)"><path d="M0 -116L100.5 -58L100.5 58L0 116L-100.5 58L-100.5 -58Z" stroke="#70d2ff" fill="none" stroke-width="10"></path></g><g transform="translate(1315 340)"><path d="M0 -134L116 -67L116 67L0 134L-116 67L-116 -67Z" stroke="#70d2ff" fill="none" stroke-width="10"></path></g><g transform="translate(931 49)"><path d="M0 -131L113.4 -65.5L113.4 65.5L0 131L-113.4 65.5L-113.4 -65.5Z" stroke="#70d2ff" fill="none" stroke-width="10"></path></g><g transform="translate(531 384)"><path d="M0 -168L145.5 -84L145.5 84L0 168L-145.5 84L-145.5 -84Z" stroke="#70d2ff" fill="none" stroke-width="10"></path></g><g transform="translate(2987 97)"><path d="M0 -135L116.9 -67.5L116.9 67.5L0 135L-116.9 67.5L-116.9 -67.5Z" stroke="#70d2ff" fill="none" stroke-width="10"></path></g><g transform="translate(1632 128)"><path d="M0 -126L109.1 -63L109.1 63L0 126L-109.1 63L-109.1 -63Z" stroke="#70d2ff" fill="none" stroke-width="10"></path></g><g transform="translate(42 134)"><path d="M0 -158L136.8 -79L136.8 79L0 158L-136.8 79L-136.8 -79Z" stroke="#70d2ff" fill="none" stroke-width="10"></path></g><g transform="translate(420 21)"><path d="M0 -165L142.9 -82.5L142.9 82.5L0 165L-142.9 82.5L-142.9 -82.5Z" stroke="#70d2ff" fill="none" stroke-width="10"></path></g></g></svg>