<svg id="visual" viewBox="0 0 3000 200" width="3000" height="200" xmlns="http://www.w3.org/2000/svg" xmlns:xlink="http://www.w3.org/1999/xlink" version="1.1"><path d="M0 122L71.5 123.2C143 124.3 286 126.7 428.8 126.8C571.7 127 714.3 125 857.2 123.8C1000 122.7 1143 122.3 1285.8 125.2C1428.7 128 1571.3 134 1714.2 136C1857 138 2000 136 2142.8 133.7C2285.7 131.3 2428.3 128.7 2571.2 130.2C2714 131.7 2857 137.3 2928.5 140.2L3000 143L3000 201L2928.5 201C2857 201 2714 201 2571.2 201C2428.3 201 2285.7 201 2142.8 201C2000 201 1857 201 1714.2 201C1571.3 201 1428.7 201 1285.8 201C1143 201 1000 201 857.2 201C714.3 201 571.7 201 428.8 201C286 201 143 201 71.5 201L0 201Z" fill="#1a3cff"></path><path d="M0 145L71.5 147.3C143 149.7 286 154.3 428.8 156.3C571.7 158.3 714.3 157.7 857.2 154.8C1000 152 1143 147 1285.8 143.7C1428.7 140.3 1571.3 138.7 1714.2 139.5C1857 140.3 2000 143.7 2142.8 144.2C2285.7 144.7 2428.3 142.3 2571.2 143.7C2714 145 2857 150 2928.5 152.5L3000 155L3000 201L2928.5 201C2857 201 2714 201 2571.2 201C2428.3 201 2285.7 201 2142.8 201C2000 201 1857 201 1714.2 201C1571.3 201 1428.7 201 1285.8 201C1143 201 1000 201 857.2 201C714.3 201 571.7 201 428.8 201C286 201 143 201 71.5 201L0 201Z" fill="#0083ff"></path><path d="M0 161L71.5 159C143 157 286 153 428.8 152C571.7 151 714.3 153 857.2 156.2C1000 159.3 1143 163.7 1285.8 164.7C1428.7 165.7 1571.3 163.3 1714.2 161.3C1857 159.3 2000 157.7 2142.8 158.8C2285.7 160 2428.3 164 2571.2 163.5C2714 163 2857 158 2928.5 155.5L3000 153L3000 201L2928.5 201C2857 201 2714 201 2571.2 201C2428.3 201 2285.7 201 2142.8 201C2000 201 1857 201 1714.2 201C1571.3 201 1428.7 201 1285.8 201C1143 201 1000 201 857.2 201C714.3 201 571.7 201 428.8 201C286 201 143 201 71.5 201L0 201Z" fill="#00b2ff"></path><path d="M0 170L71.5 171.5C143 173 286 176 428.8 176.2C571.7 176.3 714.3 173.7 857.2 171C1000 168.3 1143 165.7 1285.8 164.5C1428.7 163.3 1571.3 163.7 1714.2 164.5C1857 165.3 2000 166.7 2142.8 168.2C2285.7 169.7 2428.3 171.3 2571.2 173C2714 174.7 2857 176.3 2928.5 177.2L3000 178L3000 201L2928.5 201C2857 201 2714 201 2571.2 201C2428.3 201 2285.7 201 2142.8 201C2000 201 1857 201 1714.2 201C1571.3 201 1428.7 201 1285.8 201C1143 201 1000 201 857.2 201C714.3 201 571.7 201 428.8 201C286 201 143 201 71.5 201L0 201Z" fill="#00d8ff"></path><path d="M0 181L71.5 181.5C143 182 286 183 428.8 182.5C571.7 182 714.3 180 857.2 178.5C1000 177 1143 176 1285.8 176.3C1428.7 176.7 1571.3 178.3 1714.2 179C1857 179.7 2000 179.3 2142.8 179.5C2285.7 179.7 2428.3 180.3 2571.2 181.8C2714 183.3 2857 185.7 2928.5 186.8L3000 188L3000 201L2928.5 201C2857 201 2714 201 2571.2 201C2428.3 201 2285.7 201 2142.8 201C2000 201 1857 201 1714.2 201C1571.3 201 1428.7 201 1285.8 201C1143 201 1000 201 857.2 201C714.3 201 571.7 201 428.8 201C286 201 143 201 71.5 201L0 201Z" fill="#69fafa"></path></svg>