<svg id="visual" viewBox="0 0 3000 200" width="3000" height="200" xmlns="http://www.w3.org/2000/svg" xmlns:xlink="http://www.w3.org/1999/xlink" version="1.1"><rect x="0" y="0" width="3000" height="200" fill="#1700ff"></rect><path d="M0 116L200 116L200 152L400 152L400 72L600 72L600 97L800 97L800 84L1000 84L1000 132L1200 132L1200 106L1400 106L1400 143L1600 143L1600 103L1800 103L1800 80L2000 80L2000 137L2200 137L2200 149L2400 149L2400 66L2600 66L2600 112L2800 112L2800 112L3000 112L3000 116L3000 201L3000 201L2800 201L2800 201L2600 201L2600 201L2400 201L2400 201L2200 201L2200 201L2000 201L2000 201L1800 201L1800 201L1600 201L1600 201L1400 201L1400 201L1200 201L1200 201L1000 201L1000 201L800 201L800 201L600 201L600 201L400 201L400 201L200 201L200 201L0 201Z" fill="#00aaff"></path></svg>